<svg width="56" height="56" viewBox="0 0 56 56" fill="none" xmlns="http://www.w3.org/2000/svg">
<g clip-path="url(#clip0_12_48)">
<path d="M46.1599 29.0036H44.4099V2.73131C44.4099 2.19013 43.9619 1.75 43.4106 1.75H11.9058C11.355 1.75 10.907 2.19013 10.907 2.73131V23.5931H9.15698V2.73131C9.15698 1.22544 10.3899 0 11.9058 0H43.4106C44.9265 0 46.1599 1.22544 46.1599 2.73131V29.0036ZM22.7536 48.0384H30.8745V49.7884H22.7536V48.0384ZM17.0648 43.9963H28.0635V45.7463H17.0648V43.9963Z" fill="#EF233C"/>
<path d="M13.2798 5.4635H42.0362V7.2135H13.2798V5.4635ZM52.3363 56H50.5863V52.7069L50.9411 52.4444C52.2413 51.4819 52.9868 50.0141 52.9868 48.4177V38.1609L52.8775 35.938C52.8766 35.1654 52.2729 34.5721 51.5313 34.5721C50.1899 34.5721 50.1851 35.1103 50.1851 35.343V35.3456H48.4351V34.797C48.4351 34.0673 47.8318 33.4736 47.0907 33.4736C46.3491 33.4736 45.7453 34.0673 45.7453 34.797H43.9953V33.6971C43.9953 32.9678 43.3912 32.375 42.6487 32.375C41.9076 32.375 41.3043 32.9678 41.3043 33.6971V34.9344H39.5543C39.5543 31.9576 39.5342 22.2731 39.5342 22.2727C39.5342 21.4996 38.8954 20.8718 38.1105 20.8718C37.327 20.8718 36.6895 21.4996 36.6895 22.2709L36.6773 44.4872L34.9282 44.5235L34.8827 43.4407L34.8818 38.8618C34.8818 37.4929 33.7522 36.379 32.3635 36.379H32.108V39.6358L32.2135 40.3231L32.108 40.3563V44.9719L38.2409 52.1863C38.7502 52.4965 39.8912 53.1401 40.5614 53.3015L41.2312 53.4629V56H39.4812V54.7851C38.4614 54.3848 37.3475 53.6939 37.1983 53.6003L37.0842 53.5286L30.358 45.6159L30.3558 39.7482L30.3318 39.0819L30.358 39.0736V36.2762L30.3064 36.2692L30.358 35.2511V34.6907L30.3939 34.6885L30.3974 34.629L32.3627 34.6286C33.326 34.6286 34.2164 34.9471 34.9317 35.483L34.9391 22.2696C34.9391 20.5336 36.3614 19.1209 38.1101 19.1209C39.8601 19.1209 41.2837 20.5336 41.2837 22.2701C41.2837 22.2701 41.2933 27.0541 41.2995 30.9313C41.7201 30.7283 42.1812 30.6232 42.6483 30.6237C43.2058 30.6233 43.7531 30.773 44.2328 31.0573C44.7124 31.3415 45.1066 31.7497 45.3739 32.2389C45.8824 31.9009 46.4796 31.721 47.0902 31.7218C47.6183 31.7215 48.1377 31.856 48.5992 32.1128C49.0606 32.3695 49.4489 32.7399 49.727 33.1888C50.21 32.9486 50.8177 32.8208 51.5308 32.8208C53.2375 32.8208 54.6262 34.1994 54.6262 35.8938L54.7355 38.1168L54.7364 48.4164C54.7364 50.4236 53.8671 52.2773 52.3363 53.5693V56V56ZM13.8494 49.112L12.2328 48.4413C12.7968 47.0824 13.0947 45.5385 13.0947 43.9775C13.0947 40.5952 11.7092 37.4828 9.47879 35.8553L8.96035 35.4773L10.5397 30.7847L12.0154 30.8302C12.7902 30.8595 13.5108 30.5559 14.0668 30.0226C14.3393 29.7639 14.5573 29.4534 14.7081 29.1093C14.8588 28.7652 14.9394 28.3945 14.9449 28.0188L14.9537 27.4943L8.84441 27.4033L5.7876 34.2497V48.6036H4.0376V33.8774L7.7301 25.6366L16.6599 25.7701L16.7058 26.5829C16.7133 26.6801 16.7163 26.747 16.7146 26.817L16.6945 28.0477C16.686 28.6548 16.5562 29.2541 16.3129 29.8103C16.0696 30.3666 15.7175 30.8686 15.2774 31.2869C14.3911 32.1387 13.2029 32.6039 11.9738 32.5802L11.7835 32.5741L11.0192 34.8447C13.3927 36.8703 14.8438 40.3029 14.8438 43.9775C14.8447 45.766 14.5008 47.5418 13.8494 49.112V49.112Z" fill="#EF233C"/>
<path d="M20.59 56H18.84V49.8527H3.01343V56H1.26343V48.1027H20.59V56ZM25.966 18.4292H15.1138V9.92249H25.966V18.4292V18.4292ZM16.8638 16.6792H24.216V11.6725H16.8638V16.6792ZM14.7091 21.1842H32.0131V22.9342H14.7091V21.1842ZM18.6912 25.6882H32.0131V27.4382H18.6912V25.6882Z" fill="#EF233C"/>
<path d="M18.6914 30.1927H32.0133V31.9427H18.6914V30.1927Z" fill="#EF233C"/>
<path d="M14.7092 34.6977H27.6041V36.4477H14.7092V34.6977Z" fill="#EF233C"/>
<path d="M38.9883 16.3437H37.2383V14.5937H38.9883V16.3437ZM38.9883 12.8437H37.2383V11.0937H38.9883V12.8437ZM37.2383 9.34367V9.3056H38.9883L37.2383 9.34367Z" fill="#EF233C"/>
</g>
<defs>
<clipPath id="clip0_12_48">
<rect width="56" height="56" fill="white"/>
</clipPath>
</defs>
</svg>
