<svg width="112" height="112" viewBox="0 0 112 112" fill="none" xmlns="http://www.w3.org/2000/svg">
<circle opacity="0.5" cx="56" cy="56" r="56" fill="#EF233C"/>
<path fill-rule="evenodd" clip-rule="evenodd" d="M55.1999 89.6C63.899 89.6 72.2418 86.1443 78.393 79.9931C84.5442 73.8419 87.9999 65.4991 87.9999 56.8C87.9999 48.1009 84.5442 39.7581 78.393 33.6069C72.2418 27.4557 63.899 24 55.1999 24C46.5008 24 38.158 27.4557 32.0068 33.6069C25.8556 39.7581 22.3999 48.1009 22.3999 56.8C22.3999 65.4991 25.8556 73.8419 32.0068 79.9931C38.158 86.1443 46.5008 89.6 55.1999 89.6V89.6ZM53.3754 45.1888C52.7579 44.7768 52.0402 44.5402 51.2988 44.5042C50.5574 44.4682 49.8201 44.6341 49.1657 44.9843C48.5112 45.3345 47.964 45.8558 47.5826 46.4926C47.2012 47.1293 46.9998 47.8577 46.9999 48.6V65C46.9998 65.7423 47.2012 66.4707 47.5826 67.1074C47.964 67.7442 48.5112 68.2655 49.1657 68.6157C49.8201 68.9659 50.5574 69.1318 51.2988 69.0958C52.0402 69.0598 52.7579 68.8232 53.3754 68.4112L65.6754 60.2112C66.2369 59.8368 66.6973 59.3295 67.0158 58.7345C67.3342 58.1394 67.5008 57.4749 67.5008 56.8C67.5008 56.1251 67.3342 55.4606 67.0158 54.8655C66.6973 54.2705 66.2369 53.7632 65.6754 53.3888L53.3754 45.1888V45.1888Z" fill="white"/>
</svg>
